<svg id="Icons" height="512" viewBox="0 0 74 74" width="512" xmlns="http://www.w3.org/2000/svg"><path d="m48.6 68.36a1 1 0 0 1 -.568-1.824 17.913 17.913 0 0 0 2.152-1.736 1 1 0 1 1 1.373 1.454 19.85 19.85 0 0 1 -2.391 1.927 1 1 0 0 1 -.566.179z"/><path d="m37 72a21.364 21.364 0 0 1 -21.34-21.34v-15.92a21.365 21.365 0 0 1 16.262-20.731 21.579 21.579 0 0 1 10.156 0 21.281 21.281 0 0 1 16.262 20.731v13.26a1 1 0 0 1 -2 0v-13.26a19.284 19.284 0 0 0 -14.74-18.788 19.567 19.567 0 0 0 -9.2 0 19.365 19.365 0 0 0 -14.74 18.788v15.92a19.362 19.362 0 0 0 19.34 19.34 18.772 18.772 0 0 0 4.528-.541 1 1 0 0 1 .483 1.942 20.842 20.842 0 0 1 -5.011.599z"/><path d="m55.119 60.88a1 1 0 0 1 -.884-1.466 16.552 16.552 0 0 0 1.16-2.8 1 1 0 1 1 1.91.593 18.669 18.669 0 0 1 -1.3 3.139 1 1 0 0 1 -.886.534z"/><path d="m57.342 37.734h-40.684a1 1 0 0 1 0-2h40.684a1 1 0 0 1 0 2z"/><path d="m37 32.621a5.845 5.845 0 0 1 -5.838-5.838v-11.8a1 1 0 1 1 2 0v11.8a3.838 3.838 0 0 0 7.676 0v-11.8a1 1 0 1 1 2 0v11.8a5.845 5.845 0 0 1 -5.838 5.838z"/><path d="m37 37.734a1 1 0 0 1 -1-1v-5.113a1 1 0 1 1 2 0v5.113a1 1 0 0 1 -1 1z"/><path d="m37 26.186a1 1 0 0 1 -1-1v-4.019a1 1 0 0 1 2 0v4.019a1 1 0 0 1 -1 1z"/><path d="m37 15.4a1 1 0 0 1 -1-1v-.293a6.561 6.561 0 0 1 6.554-6.553h3.061a4.559 4.559 0 0 0 4.554-4.554 1 1 0 0 1 2 0 6.561 6.561 0 0 1 -6.554 6.554h-3.061a4.559 4.559 0 0 0 -4.554 4.553v.293a1 1 0 0 1 -1 1z"/></svg>