<svg id="Icons" height="512" viewBox="0 0 74 74" width="512" xmlns="http://www.w3.org/2000/svg"><path d="m66.447 30.8h-58.902a1 1 0 0 1 -1-1v-14.823a1 1 0 0 1 1-1h14.7a1 1 0 0 1 .534.155l7.818 4.942h35.85a1 1 0 0 1 1 1v9.726a1 1 0 0 1 -1 1zm-57.9-2h56.9v-7.726h-35.147a1 1 0 0 1 -.534-.155l-7.818-4.942h-13.403z"/><path d="m66.453 60.023h-58.906a1 1 0 0 1 -.988-.846l-4.547-29.217a1 1 0 0 1 .988-1.154h68a1 1 0 0 1 .988 1.154l-4.547 29.217a1 1 0 0 1 -.988.846zm-58.05-2h57.197l4.236-27.217h-65.669z"/><path d="m45.226 51.55h-16.455a3.92 3.92 0 0 1 -1.029-7.7 6.948 6.948 0 0 1 -.037-.715 7.581 7.581 0 0 1 13.936-4.135 5.243 5.243 0 0 1 5.8 5.244q0 .074 0 .147a3.92 3.92 0 0 1 -2.207 7.161zm-16.455-5.84a1.92 1.92 0 0 0 0 3.84h16.455a1.92 1.92 0 0 0 .754-3.686 1 1 0 0 1 -.6-1.06 3.975 3.975 0 0 0 .056-.562 3.276 3.276 0 0 0 -3.272-3.273 3.355 3.355 0 0 0 -.8.106 1 1 0 0 1 -1.126-.512 5.58 5.58 0 0 0 -10.535 2.57 5.685 5.685 0 0 0 .171 1.34 1 1 0 0 1 -.971 1.237z"/></svg>