<svg id="Icons" height="512" viewBox="0 0 74 74" width="512" xmlns="http://www.w3.org/2000/svg"><path d="m71 33.45a1 1 0 0 1 -1-1v-2.97a1 1 0 0 1 2 0v2.97a1 1 0 0 1 -1 1z"/><path d="m67 56.99h-60a5.006 5.006 0 0 1 -5-5v-44.99a5.006 5.006 0 0 1 5-5h60a5.006 5.006 0 0 1 5 5v5.57a1 1 0 0 1 -2 0v-5.57a3 3 0 0 0 -3-3h-60a3 3 0 0 0 -3 3v44.99a3 3 0 0 0 3 3h60a3 3 0 0 0 3-3v-12.54a1 1 0 0 1 2 0v12.54a5.006 5.006 0 0 1 -5 5z"/><path d="m71 23.48a1 1 0 0 1 -1-1v-2.91a1 1 0 1 1 2 0v2.91a1 1 0 0 1 -1 1z"/><path d="m54.5 72h-35a1 1 0 0 1 -.736-1.677c2.809-3.052 4.058-7.727 3.82-14.295a1 1 0 0 1 1-1.036h26.833a1 1 0 0 1 .993 1.116c-.667 5.719.594 10.38 3.855 14.247a1 1 0 0 1 -.765 1.645zm-32.946-2h30.931a19.589 19.589 0 0 1 -3.17-13.008h-24.706c.074 5.543-.931 9.829-3.055 13.008z"/><path d="m71 46.01h-68a1 1 0 0 1 0-2h68a1 1 0 0 1 0 2z"/><path d="m14.25 51.25h-2.625a1 1 0 0 1 0-2h2.625a1 1 0 0 1 0 2z"/><path d="m37 21.514c-6.174 0-11.01-2.749-11.01-6.257s4.836-6.257 11.01-6.257 11.01 2.749 11.01 6.257-4.836 6.257-11.01 6.257zm0-10.514c-5.31 0-9.01 2.244-9.01 4.257s3.7 4.257 9.01 4.257 9.01-2.244 9.01-4.257-3.7-4.257-9.01-4.257z"/><path d="m37 27.337c-6.174 0-11.01-2.749-11.01-6.257v-5.823a1 1 0 0 1 2 0v5.823c0 2.013 3.7 4.257 9.01 4.257s9.01-2.244 9.01-4.257v-5.823a1 1 0 1 1 2 0v5.823c0 3.508-4.836 6.257-11.01 6.257z"/><path d="m37 33.173c-6.174 0-11.01-2.748-11.01-6.256v-5.823a1 1 0 0 1 2 0v5.823c0 2.013 3.7 4.256 9.01 4.256s9.01-2.243 9.01-4.256v-5.823a1 1 0 0 1 2 0v5.823c0 3.508-4.836 6.256-11.01 6.256z"/><path d="m37 39.01c-6.174 0-11.01-2.749-11.01-6.257v-5.823a1 1 0 0 1 2 0v5.823c0 2.013 3.7 4.257 9.01 4.257s9.01-2.244 9.01-4.257v-5.823a1 1 0 0 1 2 0v5.823c0 3.508-4.836 6.257-11.01 6.257z"/></svg>